<?xml version="1.0" encoding="UTF-8" standalone="no"?>

<svg width="64.235992mm" height="55.510559mm" viewBox="0 0 64.235992 55.510559" version="1.1" id="svg5" xmlns="http://www.w3.org/2000/svg">
  <defs
     id="defs2">
    <rect
       x="173.78835"
       y="158.48624"
       width="180.34641"
       height="172.69534"
       id="rect113" />
  </defs>
  <g  
     id="layer1"
     transform="translate(-22.537473,-63.7591)">
    <g  
       aria-label="" transform="matrix(1.202853,0,0,1.1895127,-186.42138,-215.95832)"
       id="text111"
       style="white-space:pre;shape-inside:url(#rect113)">
      <path
         d="m 192.12238,240.98628 v 4.16666 h 16.66666 v -4.16666 c 0,-0.41667 -0.41666,-0.83333 -0.83333,-0.83333 h -14.99999 c -0.52084,0 -0.83334,0.41666 -0.83334,0.83333 z m -4.99999,4.16666 v -4.16666 c 0,-3.125 2.60416,-5.83333 5.83333,-5.83333 h 14.99999 c 3.125,0 5.83333,2.70833 5.83333,5.83333 v 4.16666 h 2.91666 c 1.25,0 2.60417,0.625 3.54167,1.5625 l 5.31249,5.3125 c 0.9375,0.9375 1.5674,2.29167 1.5625,3.54166 l -0.0697,17.78531 c -19.99771,-0.0264 -34.74386,0 -53.3333,0 l 0.0697,-17.78531 c 0.005,-1.24999 0.52084,-2.60416 1.45833,-3.54166 l 5.41667,-5.3125 c 0.9375,-0.9375 2.1875,-1.5625 3.4375,-1.5625 z m -13.33333,29.99998 c -1.56388,-16.70589 38.16557,-8.27791 53.3333,-8.33332 v 8.33332 c 0,3.75 -3.02083,6.66667 -6.66666,6.66667 h -39.99997 c -3.75,0 -6.66667,-2.91667 -6.66667,-6.66667 z"
         id="path281"
         style="display:inline;fill:#1d3557"
         />
      <path
         d="m 26.637973,-119.92227 c -0.347266,-0.94257 -1.389063,-1.38906 -2.331641,-1.14101 l -4.365625,1.19062 c -0.843359,0.24805 -1.438672,0.99219 -1.438672,1.88516 0,12.30313 9.921875,22.225 22.225,22.225 0.892969,0 1.637109,-0.595313 1.885156,-1.438672 l 1.190625,-4.365628 c 0.248047,-0.94257 -0.198437,-1.98437 -1.141016,-2.33164 l -4.7625,-1.98437 c -0.79375,-0.34727 -1.736328,-0.14883 -2.282031,0.5457 l -2.033984,2.43086 c -3.472656,-1.63711 -6.300391,-4.46484 -7.9375,-7.9375 l 2.430859,-2.03398 c 0.694532,-0.54571 0.892969,-1.48829 0.545703,-2.28204 z"
         id="path1283"
         style="display:inline;fill:#ffffff;stroke-width:0.264583"
         transform="matrix(-0.59211913,0.59011045,-0.5835658,-0.5987597,154.98268,181.55192)" />
    </g>
  </g>  
</svg>
